<mxfile host="Electron" modified="2023-10-22T07:38:29.259Z" agent="Mozilla/5.0 (Windows NT 10.0; Win64; x64) AppleWebKit/537.36 (KHTML, like Gecko) draw.io/21.6.8 Chrome/114.0.5735.289 Electron/25.5.0 Safari/537.36" etag="G0-092BxOaQZRQdb1C-Z" version="21.6.8" type="device">
  <diagram name="ページ1" id="0jyctanjhAeghF0YaPE9">
    <mxGraphModel dx="592" dy="989" grid="1" gridSize="10" guides="1" tooltips="1" connect="1" arrows="1" fold="1" page="1" pageScale="1" pageWidth="827" pageHeight="1169" math="0" shadow="0">
      <root>
        <mxCell id="0" />
        <mxCell id="1" parent="0" />
        <mxCell id="xKcwrSb2T2jSaDf0Nlvw-18" value="&lt;div style=&quot;text-align: justify;&quot;&gt;&lt;span style=&quot;background-color: initial;&quot;&gt;Spring Boot&lt;/span&gt;&lt;/div&gt;" style="rounded=1;whiteSpace=wrap;html=1;fillColor=none;dashed=1;dashPattern=8 8;labelPosition=center;verticalLabelPosition=top;align=center;verticalAlign=bottom;" vertex="1" parent="1">
          <mxGeometry x="200" y="100" width="270" height="220" as="geometry" />
        </mxCell>
        <mxCell id="xKcwrSb2T2jSaDf0Nlvw-1" value="" style="sketch=0;outlineConnect=0;fontColor=#232F3E;gradientColor=none;fillColor=#232F3D;strokeColor=none;dashed=0;verticalLabelPosition=bottom;verticalAlign=top;align=center;html=1;fontSize=12;fontStyle=0;aspect=fixed;pointerEvents=1;shape=mxgraph.aws4.user;" vertex="1" parent="1">
          <mxGeometry y="160" width="78" height="78" as="geometry" />
        </mxCell>
        <mxCell id="xKcwrSb2T2jSaDf0Nlvw-2" value="Spring Web" style="rounded=0;whiteSpace=wrap;html=1;" vertex="1" parent="1">
          <mxGeometry x="213.75" y="270" width="90" height="30" as="geometry" />
        </mxCell>
        <mxCell id="xKcwrSb2T2jSaDf0Nlvw-3" value="Controller" style="rounded=0;whiteSpace=wrap;html=1;rotation=-90;" vertex="1" parent="1">
          <mxGeometry x="160" y="176.25" width="147.5" height="40" as="geometry" />
        </mxCell>
        <mxCell id="xKcwrSb2T2jSaDf0Nlvw-4" value="Controller Advice" style="rounded=0;whiteSpace=wrap;html=1;rotation=-90;" vertex="1" parent="1">
          <mxGeometry x="246.25" y="212.5" width="75" height="40" as="geometry" />
        </mxCell>
        <mxCell id="xKcwrSb2T2jSaDf0Nlvw-5" value="Service" style="rounded=0;whiteSpace=wrap;html=1;rotation=-90;" vertex="1" parent="1">
          <mxGeometry x="246.25" y="140" width="75" height="40" as="geometry" />
        </mxCell>
        <mxCell id="xKcwrSb2T2jSaDf0Nlvw-6" value="Spring Data JPA" style="rounded=0;whiteSpace=wrap;html=1;" vertex="1" parent="1">
          <mxGeometry x="313.75" y="270" width="90" height="30" as="geometry" />
        </mxCell>
        <mxCell id="xKcwrSb2T2jSaDf0Nlvw-7" value="Repository" style="rounded=0;whiteSpace=wrap;html=1;rotation=-90;" vertex="1" parent="1">
          <mxGeometry x="263.75" y="176.25" width="147.5" height="40" as="geometry" />
        </mxCell>
        <mxCell id="xKcwrSb2T2jSaDf0Nlvw-8" value="Entity" style="rounded=0;whiteSpace=wrap;html=1;rotation=-90;" vertex="1" parent="1">
          <mxGeometry x="307.5" y="176.25" width="147.5" height="40" as="geometry" />
        </mxCell>
        <mxCell id="xKcwrSb2T2jSaDf0Nlvw-9" value="My SQL Driver" style="rounded=0;whiteSpace=wrap;html=1;rotation=-90;" vertex="1" parent="1">
          <mxGeometry x="347.5" y="189" width="180" height="40" as="geometry" />
        </mxCell>
        <mxCell id="xKcwrSb2T2jSaDf0Nlvw-10" value="My SQL" style="strokeWidth=2;html=1;shape=mxgraph.flowchart.database;whiteSpace=wrap;" vertex="1" parent="1">
          <mxGeometry x="580" y="169" width="60" height="60" as="geometry" />
        </mxCell>
        <mxCell id="xKcwrSb2T2jSaDf0Nlvw-11" value="" style="endArrow=classic;html=1;rounded=0;" edge="1" parent="1">
          <mxGeometry width="50" height="50" relative="1" as="geometry">
            <mxPoint x="90" y="182.75" as="sourcePoint" />
            <mxPoint x="200" y="183.75" as="targetPoint" />
          </mxGeometry>
        </mxCell>
        <mxCell id="xKcwrSb2T2jSaDf0Nlvw-12" value="HTTP Request" style="edgeLabel;html=1;align=center;verticalAlign=middle;resizable=0;points=[];" vertex="1" connectable="0" parent="xKcwrSb2T2jSaDf0Nlvw-11">
          <mxGeometry x="-0.098" y="1" relative="1" as="geometry">
            <mxPoint as="offset" />
          </mxGeometry>
        </mxCell>
        <mxCell id="xKcwrSb2T2jSaDf0Nlvw-13" value="" style="endArrow=classic;html=1;rounded=0;" edge="1" parent="1">
          <mxGeometry width="50" height="50" relative="1" as="geometry">
            <mxPoint x="200" y="232.75" as="sourcePoint" />
            <mxPoint x="90" y="232.75" as="targetPoint" />
          </mxGeometry>
        </mxCell>
        <mxCell id="xKcwrSb2T2jSaDf0Nlvw-14" value="HTTP Response" style="edgeLabel;html=1;align=center;verticalAlign=middle;resizable=0;points=[];" vertex="1" connectable="0" parent="xKcwrSb2T2jSaDf0Nlvw-13">
          <mxGeometry x="0.0364" y="1" relative="1" as="geometry">
            <mxPoint as="offset" />
          </mxGeometry>
        </mxCell>
        <mxCell id="xKcwrSb2T2jSaDf0Nlvw-15" value="" style="endArrow=classic;startArrow=classic;html=1;rounded=0;" edge="1" parent="1">
          <mxGeometry width="50" height="50" relative="1" as="geometry">
            <mxPoint x="470" y="199.75" as="sourcePoint" />
            <mxPoint x="570" y="198.25" as="targetPoint" />
          </mxGeometry>
        </mxCell>
        <mxCell id="xKcwrSb2T2jSaDf0Nlvw-16" value="作成・検索&lt;br&gt;更新・削除" style="edgeLabel;html=1;align=center;verticalAlign=middle;resizable=0;points=[];" vertex="1" connectable="0" parent="xKcwrSb2T2jSaDf0Nlvw-15">
          <mxGeometry x="0.0286" relative="1" as="geometry">
            <mxPoint as="offset" />
          </mxGeometry>
        </mxCell>
        <mxCell id="xKcwrSb2T2jSaDf0Nlvw-20" value="Spring Boot 依存関係&lt;br&gt;&lt;br&gt;Spring Web：ここまで使ってきたやつ&lt;br&gt;　- データベース操作に伴う例外処理を実装するため、Controller Adviceを追加で利用&lt;br&gt;&lt;br&gt;Spring Data JPA：簡単にデータベースを利用可能とする&lt;br&gt;　- @Entity(name=&quot;テーブル名&quot;) でデータベース上のテーブルを指定可能&lt;br&gt;&lt;br&gt;My SQL Driver：My SQLを利用するためのドライバー" style="text;html=1;strokeColor=none;fillColor=none;align=left;verticalAlign=top;whiteSpace=wrap;rounded=0;" vertex="1" parent="1">
          <mxGeometry x="123.75" y="330" width="470" height="140" as="geometry" />
        </mxCell>
      </root>
    </mxGraphModel>
  </diagram>
</mxfile>
